<svg xmlns="http://www.w3.org/2000/svg" viewBox="0 0 1024 1024" role="img" aria-label="MinuteMarkets logo">
  <rect width="1024" height="1024" fill="#000" />
  <!-- Braces -->
  <path
    d="M340 220c-92 0-140 44-140 132v44c0 44-18 68-54 82 36 14 54 38 54 82v44c0 88 48 132 140 132"
    fill="none"
    stroke="#fff"
    stroke-width="90"
    stroke-linecap="round"
    stroke-linejoin="round"
  />
  <path
    d="M684 220c92 0 140 44 140 132v44c0 44 18 68 54 82-36 14-54 38-54 82v44c0 88-48 132-140 132"
    fill="none"
    stroke="#fff"
    stroke-width="90"
    stroke-linecap="round"
    stroke-linejoin="round"
  />
  <!-- MM -->
  <text
    x="512"
    y="610"
    text-anchor="middle"
    font-family="ui-sans-serif, system-ui, -apple-system, Segoe UI, Roboto, Helvetica, Arial"
    font-size="360"
    font-weight="800"
    fill="#fff"
    letter-spacing="-20"
  >
    MM
  </text>
</svg>

